HIERARCHY
ROOT newVegas:Hips
{
	OFFSET 0.000000 96.479958 0.000000
	CHANNELS 6 Xposition Yposition Zposition Xrotation Yrotation Zrotation
	JOINT newVegas:Pelvis
	{
		OFFSET 0.000000 0.000000 0.000000
		CHANNELS 3 Xrotation Yrotation Zrotation
		JOINT newVegas:LeftUpLeg
		{
			OFFSET 18.735201 -5.666702 -4.541200
			CHANNELS 3 Xrotation Yrotation Zrotation
			JOINT newVegas:LeftLeg
			{
				OFFSET -0.021200 -31.938179 0.493100
				CHANNELS 3 Xrotation Yrotation Zrotation
				JOINT newVegas:LeftFoot
				{
					OFFSET 0.021200 -31.938179 -4.336299
					CHANNELS 3 Xrotation Yrotation Zrotation
					JOINT newVegas:LeftToeBase
					{
						OFFSET 0.943001 -26.722000 15.023500
						CHANNELS 3 Xrotation Yrotation Zrotation
						End Site
						{
							OFFSET 0.000000 30.670183 0.000000
						}
					}
				}
				JOINT newVegas:Left_PantLeg
				{
					OFFSET 0.663870 -9.044666 -1.108900
					CHANNELS 3 Xrotation Yrotation Zrotation
					End Site
					{
						OFFSET 1.415995 20.635357 0.000000
					}
				}
			}
		}
		JOINT newVegas:RightUpLeg
		{
			OFFSET -18.735201 -5.666702 -4.541200
			CHANNELS 3 Xrotation Yrotation Zrotation
			JOINT newVegas:RightLeg
			{
				OFFSET 0.018946 -31.938133 0.493100
				CHANNELS 3 Xrotation Yrotation Zrotation
				JOINT newVegas:RightFoot
				{
					OFFSET -0.018946 -31.938126 -4.336299
					CHANNELS 3 Xrotation Yrotation Zrotation
					JOINT newVegas:RightToeBase
					{
						OFFSET -0.943001 -26.722004 15.023500
						CHANNELS 3 Xrotation Yrotation Zrotation
						End Site
						{
							OFFSET 0.000000 30.670187 0.000000
						}
					}
				}
				JOINT newVegas:Right_PantLeg
				{
					OFFSET -0.661674 -9.044716 -1.108900
					CHANNELS 3 Xrotation Yrotation Zrotation
					End Site
					{
						OFFSET -1.415958 20.635269 0.000000
					}
				}
			}
		}
	}
	JOINT newVegas:Spine
	{
		OFFSET 0.000000 10.199997 -0.299500
		CHANNELS 3 Xrotation Yrotation Zrotation
		JOINT newVegas:Spine1
		{
			OFFSET 0.000000 11.900002 -1.516600
			CHANNELS 3 Xrotation Yrotation Zrotation
			JOINT newVegas:Spine2
			{
				OFFSET 0.000000 13.600006 -2.842500
				CHANNELS 3 Xrotation Yrotation Zrotation
				JOINT newVegas:Neck
				{
					OFFSET 0.000000 9.624100 -2.890100
					CHANNELS 3 Xrotation Yrotation Zrotation
					JOINT newVegas:Head
					{
						OFFSET 0.000000 14.068802 -1.351900
						CHANNELS 3 Xrotation Yrotation Zrotation
						JOINT newVegas:Hair_Back
						{
							OFFSET 0.000000 3.231903 -17.524799
							CHANNELS 3 Xrotation Yrotation Zrotation
							End Site
							{
								OFFSET 0.000000 19.849884 0.000000
							}
						}
						JOINT newVegas:Hair_Front
						{
							OFFSET 0.000000 31.260406 4.573800
							CHANNELS 3 Xrotation Yrotation Zrotation
							JOINT newVegas:Hair_Front1
							{
								OFFSET 0.000000 2.284103 11.993300
								CHANNELS 3 Xrotation Yrotation Zrotation
								JOINT newVegas:Hair_Front2
								{
									OFFSET 0.000000 2.284103 11.993300
									CHANNELS 3 Xrotation Yrotation Zrotation
									End Site
									{
										OFFSET 0.000000 12.208862 0.000000
									}
								}
							}
						}
						JOINT newVegas:Jowel
						{
							OFFSET 0.000000 -7.458206 6.864100
							CHANNELS 3 Xrotation Yrotation Zrotation
							End Site
							{
								OFFSET 0.000000 19.849884 0.000000
							}
						}
					}
				}
				JOINT newVegas:LeftShoulder
				{
					OFFSET 15.263000 10.923401 -0.547700
					CHANNELS 3 Xrotation Yrotation Zrotation
					JOINT newVegas:LeftArm
					{
						OFFSET 25.438599 -2.830597 -13.032500
						CHANNELS 3 Xrotation Yrotation Zrotation
						JOINT newVegas:LeftForeArm
						{
							OFFSET 29.960503 0.000000 0.000000
							CHANNELS 3 Xrotation Yrotation Zrotation
							JOINT newVegas:LeftHand
							{
								OFFSET 27.849251 0.000000 0.000000
								CHANNELS 3 Xrotation Yrotation Zrotation
								JOINT newVegas:LeftHandThumb1
								{
									OFFSET 4.487587 -3.305161 6.305391
									CHANNELS 3 Xrotation Yrotation Zrotation
									JOINT newVegas:LeftHandThumb2
									{
										OFFSET 5.480453 -3.164139 3.164143
										CHANNELS 3 Xrotation Yrotation Zrotation
										JOINT newVegas:LeftHandThumb3
										{
											OFFSET 5.159721 -2.978973 2.978967
											CHANNELS 3 Xrotation Yrotation Zrotation
											End Site
											{
												OFFSET 2.494507 5.926697 1.738678
											}
										}
									}
								}
								JOINT newVegas:LeftHandIndex1
								{
									OFFSET 18.578728 -0.527832 5.208049
									CHANNELS 3 Xrotation Yrotation Zrotation
									JOINT newVegas:LeftHandIndex2
									{
										OFFSET 3.192009 0.000000 0.000000
										CHANNELS 3 Xrotation Yrotation Zrotation
										JOINT newVegas:LeftHandIndex3
										{
											OFFSET 3.835129 0.000000 0.000000
											CHANNELS 3 Xrotation Yrotation Zrotation
											End Site
											{
												OFFSET -0.034599 3.816971 0.371180
											}
										}
									}
								}
								JOINT newVegas:LeftHandMiddle1
								{
									OFFSET 18.476105 0.000000 0.000000
									CHANNELS 3 Xrotation Yrotation Zrotation
									JOINT newVegas:LeftHandMiddle2
									{
										OFFSET 3.324875 0.000000 0.000000
										CHANNELS 3 Xrotation Yrotation Zrotation
										JOINT newVegas:LeftHandMiddle3
										{
											OFFSET 4.596550 0.000000 0.000000
											CHANNELS 3 Xrotation Yrotation Zrotation
											End Site
											{
												OFFSET 0.057701 4.578827 0.399218
											}
										}
									}
								}
								JOINT newVegas:LeftHandRing1
								{
									OFFSET 17.732719 0.121887 -4.201567
									CHANNELS 3 Xrotation Yrotation Zrotation
									JOINT newVegas:LeftHandRing2
									{
										OFFSET 2.733170 0.000000 0.000000
										CHANNELS 3 Xrotation Yrotation Zrotation
										JOINT newVegas:LeftHandRing3
										{
											OFFSET 3.178268 0.000000 0.000000
											CHANNELS 3 Xrotation Yrotation Zrotation
											End Site
											{
												OFFSET 0.119102 3.170624 0.185394
											}
										}
									}
								}
								JOINT newVegas:LeftHandPinky1
								{
									OFFSET 15.989624 -0.606689 -7.535461
									CHANNELS 3 Xrotation Yrotation Zrotation
									JOINT newVegas:LeftHandPinky2
									{
										OFFSET 2.538986 0.000000 0.000000
										CHANNELS 3 Xrotation Yrotation Zrotation
										JOINT newVegas:LeftHandPinky3
										{
											OFFSET 2.593102 0.000000 0.000000
											CHANNELS 3 Xrotation Yrotation Zrotation
											End Site
											{
												OFFSET -0.150902 2.584198 0.152708
											}
										}
									}
								}
							}
							JOINT newVegas:Left_Sleeve
							{
								OFFSET 0.267448 -0.649796 0.577675
								CHANNELS 3 Xrotation Yrotation Zrotation
								End Site
								{
									OFFSET 0.000000 15.991241 0.000000
								}
							}
							JOINT newVegas:Left_CapeC
							{
								OFFSET 15.715958 -8.608795 -6.935905
								CHANNELS 3 Xrotation Yrotation Zrotation
								JOINT newVegas:Left_CapeC1
								{
									OFFSET 0.000000 -8.688499 0.000000
									CHANNELS 3 Xrotation Yrotation Zrotation
									End Site
									{
										OFFSET 0.000000 8.688499 0.000000
									}
								}
							}
						}
						JOINT newVegas:Left_CapeB
						{
							OFFSET 26.118385 -8.608795 -7.079235
							CHANNELS 3 Xrotation Yrotation Zrotation
							JOINT newVegas:Left_CapeB1
							{
								OFFSET 0.000000 -8.688499 0.000000
								CHANNELS 3 Xrotation Yrotation Zrotation
								End Site
								{
									OFFSET 0.000000 8.688499 0.000000
								}
							}
						}
						JOINT newVegas:Left_CapeA
						{
							OFFSET 5.115639 -8.608795 -10.395809
							CHANNELS 3 Xrotation Yrotation Zrotation
							JOINT newVegas:Left_CapeA1
							{
								OFFSET 0.000000 -8.688499 0.000000
								CHANNELS 3 Xrotation Yrotation Zrotation
								End Site
								{
									OFFSET 0.000000 8.688499 0.000000
								}
							}
						}
					}
				}
				JOINT newVegas:RightShoulder
				{
					OFFSET -15.263000 10.923401 -0.547700
					CHANNELS 3 Xrotation Yrotation Zrotation
					JOINT newVegas:RightArm
					{
						OFFSET -25.438599 -2.830597 -13.032500
						CHANNELS 3 Xrotation Yrotation Zrotation
						JOINT newVegas:RightForeArm
						{
							OFFSET -29.960503 0.000000 0.000000
							CHANNELS 3 Xrotation Yrotation Zrotation
							JOINT newVegas:RightHand
							{
								OFFSET -27.849251 0.000000 0.000000
								CHANNELS 3 Xrotation Yrotation Zrotation
								JOINT newVegas:RightHandThumb1
								{
									OFFSET -4.487587 -3.305161 6.305391
									CHANNELS 3 Xrotation Yrotation Zrotation
									JOINT newVegas:RightHandThumb2
									{
										OFFSET -5.480453 -3.164139 3.164143
										CHANNELS 3 Xrotation Yrotation Zrotation
										JOINT newVegas:RightHandThumb3
										{
											OFFSET -5.159721 -2.978973 2.978967
											CHANNELS 3 Xrotation Yrotation Zrotation
											End Site
											{
												OFFSET -2.494507 5.926697 1.738678
											}
										}
									}
								}
								JOINT newVegas:RightHandIndex1
								{
									OFFSET -18.578728 -0.527832 5.208049
									CHANNELS 3 Xrotation Yrotation Zrotation
									JOINT newVegas:RightHandIndex2
									{
										OFFSET -3.192009 0.000000 0.000000
										CHANNELS 3 Xrotation Yrotation Zrotation
										JOINT newVegas:RightHandIndex3
										{
											OFFSET -3.835129 0.000000 0.000000
											CHANNELS 3 Xrotation Yrotation Zrotation
											End Site
											{
												OFFSET 0.034599 3.816971 0.371180
											}
										}
									}
								}
								JOINT newVegas:RightHandMiddle1
								{
									OFFSET -18.476105 0.000000 0.000000
									CHANNELS 3 Xrotation Yrotation Zrotation
									JOINT newVegas:RightHandMiddle2
									{
										OFFSET -3.324875 0.000000 0.000000
										CHANNELS 3 Xrotation Yrotation Zrotation
										JOINT newVegas:RightHandMiddle3
										{
											OFFSET -4.596550 0.000000 0.000000
											CHANNELS 3 Xrotation Yrotation Zrotation
											End Site
											{
												OFFSET -0.057701 4.578827 0.399218
											}
										}
									}
								}
								JOINT newVegas:RightHandRing1
								{
									OFFSET -17.732719 0.121887 -4.201567
									CHANNELS 3 Xrotation Yrotation Zrotation
									JOINT newVegas:RightHandRing2
									{
										OFFSET -2.733170 0.000000 0.000000
										CHANNELS 3 Xrotation Yrotation Zrotation
										JOINT newVegas:RightHandRing3
										{
											OFFSET -3.178268 0.000000 0.000000
											CHANNELS 3 Xrotation Yrotation Zrotation
											End Site
											{
												OFFSET -0.119102 3.170624 0.185394
											}
										}
									}
								}
								JOINT newVegas:RightHandPinky1
								{
									OFFSET -15.989624 -0.606689 -7.535461
									CHANNELS 3 Xrotation Yrotation Zrotation
									JOINT newVegas:RightHandPinky2
									{
										OFFSET -2.538986 0.000000 0.000000
										CHANNELS 3 Xrotation Yrotation Zrotation
										JOINT newVegas:RightHandPinky3
										{
											OFFSET -2.593102 0.000000 0.000000
											CHANNELS 3 Xrotation Yrotation Zrotation
											End Site
											{
												OFFSET 0.150902 2.584198 0.152708
											}
										}
									}
								}
							}
							JOINT newVegas:Right_CapeC
							{
								OFFSET -15.715958 -8.608795 -6.935905
								CHANNELS 3 Xrotation Yrotation Zrotation
								JOINT newVegas:Right_CapeC1
								{
									OFFSET 0.000000 -8.688499 0.000000
									CHANNELS 3 Xrotation Yrotation Zrotation
									End Site
									{
										OFFSET 0.000000 8.688499 0.000000
									}
								}
							}
							JOINT newVegas:Right_Sleeve
							{
								OFFSET -0.267448 -0.649994 0.577675
								CHANNELS 3 Xrotation Yrotation Zrotation
								End Site
								{
									OFFSET 0.000000 15.991302 0.000000
								}
							}
						}
						JOINT newVegas:Right_CapeA
						{
							OFFSET -5.115540 -8.608795 -10.395824
							CHANNELS 3 Xrotation Yrotation Zrotation
							JOINT newVegas:Right_CapeA1
							{
								OFFSET 0.000000 -8.688499 0.000000
								CHANNELS 3 Xrotation Yrotation Zrotation
								End Site
								{
									OFFSET 0.000000 8.688499 0.000000
								}
							}
						}
						JOINT newVegas:Right_CapeB
						{
							OFFSET -26.118187 -8.608795 -7.079266
							CHANNELS 3 Xrotation Yrotation Zrotation
							JOINT newVegas:Right_CapeB1
							{
								OFFSET 0.000000 -8.688499 0.000000
								CHANNELS 3 Xrotation Yrotation Zrotation
								End Site
								{
									OFFSET 0.000000 8.688499 0.000000
								}
							}
						}
					}
				}
				JOINT newVegas:Left_Collar
				{
					OFFSET 18.625099 8.655502 8.828100
					CHANNELS 3 Xrotation Yrotation Zrotation
					JOINT newVegas:Left_Collar1
					{
						OFFSET 14.783401 10.540405 -1.259500
						CHANNELS 3 Xrotation Yrotation Zrotation
						End Site
						{
							OFFSET 0.000000 18.199875 0.000000
						}
					}
				}
				JOINT newVegas:Collar_Back
				{
					OFFSET 0.000000 15.630707 -20.132601
					CHANNELS 3 Xrotation Yrotation Zrotation
					End Site
					{
						OFFSET 0.000000 22.523010 0.000000
					}
				}
				JOINT newVegas:Left_Peck
				{
					OFFSET 17.239599 -5.132599 25.482599
					CHANNELS 3 Xrotation Yrotation Zrotation
					End Site
					{
						OFFSET 0.000000 22.523010 0.000000
					}
				}
				JOINT newVegas:Right_Peck
				{
					OFFSET -17.239599 -5.132202 25.482599
					CHANNELS 3 Xrotation Yrotation Zrotation
					End Site
					{
						OFFSET 0.000000 22.523010 0.000000
					}
				}
				JOINT newVegas:Right_Collar
				{
					OFFSET -18.625099 8.655792 8.828100
					CHANNELS 3 Xrotation Yrotation Zrotation
					JOINT newVegas:Right_Collar1
					{
						OFFSET -14.783401 10.539993 -1.259500
						CHANNELS 3 Xrotation Yrotation Zrotation
						End Site
						{
							OFFSET 0.000000 18.199631 0.000000
						}
					}
				}
			}
		}
		JOINT newVegas:Belly
		{
			OFFSET 0.000000 -6.540398 9.014299
			CHANNELS 3 Xrotation Yrotation Zrotation
			End Site
			{
				OFFSET 0.000000 11.566666 0.000000
			}
		}
	}
	JOINT newVegas:ElvisFacialAnim_Joint
	{
		OFFSET 1.000000 -95.330101 -8.825800
		CHANNELS 3 Xrotation Yrotation Zrotation
		End Site
		{
			OFFSET 0.000000 35.315800 0.000000
		}
	}
}
MOTION
Frames: 4
Frame Time: 0.033333
0.890735 90.057617 4.784444 4.680310 -0.510715 1.974046 0.000000 0.000000 0.000000 -48.548308 -1.885857 8.637939 63.161409 -9.056910 -1.832572 19.264077 -0.016221 -11.766648 -0.000001 0.000000 0.000000 -0.000003 -0.000000 0.000000 -20.225539 -3.042358 -7.782576 43.051936 8.125225 6.327909 -33.801971 -1.589071 -4.793633 -0.000000 -0.000000 -0.000000 0.000002 0.000000 -0.000001 11.915664 1.786060 -0.109213 6.488762 2.803135 -1.145530 -3.468484 2.991149 -0.604884 -0.996816 -1.129820 0.625018 -0.996812 -1.129819 0.625018 0.000001 0.000000 -0.000000 -0.996809 -1.129820 0.625018 -0.996825 -1.129821 0.625017 0.000000 0.000000 -0.000000 0.000001 0.000000 -0.000000 -0.192659 -10.382701 -12.877757 -1.142280 -1.895186 -57.989105 42.286459 -14.464155 2.072660 -13.111211 -9.142810 8.165585 12.088900 -6.782862 15.448524 15.358548 21.901046 -15.247354 0.000002 -0.000000 -0.000003 -2.684864 2.289385 -22.306124 10.793449 -6.109349 -44.412885 0.000000 -0.000003 0.000001 -4.154357 5.121741 -34.231873 -1.172061 -2.345031 -53.965349 -0.000001 0.000002 -0.000001 -0.611882 -5.393018 -31.771219 -13.605187 3.511064 -54.935591 0.000001 -0.000002 -0.000001 -0.137750 -14.158163 -33.270507 -20.564465 5.410420 -42.961651 0.000002 -0.000003 -0.000001 -0.000002 -0.000000 -0.000000 -0.000002 -0.000000 -0.000000 -0.000003 0.000000 -0.000000 -0.000000 -0.000001 0.000001 0.000000 -0.000001 -0.000001 -0.000000 -0.000001 0.000001 0.000000 -0.000000 0.000001 7.272098 1.712360 15.810759 -29.017929 11.845322 52.305408 24.771009 26.122750 -3.343880 -16.096469 4.489265 0.435081 2.301536 6.012960 -10.993960 5.820728 -24.258279 6.518071 0.000000 -0.000004 -0.000001 -10.227789 -4.398317 7.942440 7.845083 1.869388 17.347997 -0.000003 -0.000000 0.000000 -10.037206 -5.475624 15.436388 -0.445714 1.541547 31.738414 -0.000003 0.000002 0.000003 -6.805881 -2.380538 23.979175 -10.241868 -0.672853 34.103479 0.000001 -0.000001 -0.000001 -4.151497 1.682814 25.868170 -16.593443 -2.063462 29.628671 0.000000 -0.000003 -0.000003 0.000002 0.000001 0.000001 0.000001 0.000002 0.000001 0.000002 0.000001 0.000001 0.000001 -0.000003 0.000001 0.000002 -0.000002 0.000001 0.000001 -0.000003 0.000001 0.000002 -0.000002 0.000001 0.000003 0.000000 0.000000 0.000003 0.000000 0.000000 0.000003 0.000000 0.000000 0.000003 0.000000 0.000000 0.000003 0.000000 0.000000 0.000003 0.000000 0.000000 0.000003 0.000000 0.000000 0.000001 -0.000000 0.000000 0.000000 0.000000 0.000000 
0.938330 90.885078 7.477818 4.348882 -0.990105 1.956758 -0.000000 -0.000000 -0.000000 -50.294911 -2.079583 9.518081 57.209514 -9.074662 -2.238725 14.414190 0.563325 -13.352906 -0.000001 -0.000000 -0.000000 -0.000000 0.000000 -0.000000 -14.801170 -3.766705 -7.918436 37.342567 8.770712 6.635602 -33.231022 -1.629333 -4.850138 -0.000000 -0.000000 0.000000 0.000000 -0.000000 -0.000001 11.777362 2.044008 -0.576407 6.185734 3.598150 -1.457019 -3.783105 3.774832 -0.755532 -0.693265 -1.243804 0.749913 -0.693265 -1.243803 0.749913 -0.000002 -0.000000 0.000000 -0.693126 -1.243803 0.749914 -0.693402 -1.243803 0.749909 -0.000001 0.000000 -0.000000 -0.000002 -0.000000 0.000000 -0.123156 -7.338905 -12.553875 3.254153 -2.052493 -58.965556 42.415523 -16.176550 2.784902 -12.577649 -7.276314 9.510151 11.957248 -6.775982 15.390190 15.236153 21.945155 -15.134564 0.000001 0.000000 -0.000001 -2.775805 2.339876 -22.117136 10.765646 -6.029310 -44.053252 0.000001 0.000001 0.000005 -4.226437 5.147506 -33.980850 -1.162789 -2.338286 -53.668304 -0.000000 -0.000000 -0.000000 -0.680608 -5.278489 -31.676491 -13.567554 3.455761 -54.658657 -0.000001 0.000001 -0.000002 -0.169959 -13.984903 -33.185188 -20.516720 5.352455 -42.785415 0.000001 -0.000003 -0.000003 -0.000001 -0.000001 0.000000 -0.000001 -0.000001 0.000000 -0.000001 -0.000001 -0.000000 -0.000001 0.000000 0.000003 -0.000001 0.000000 0.000001 -0.000001 0.000000 0.000003 -0.000001 -0.000000 0.000003 7.034214 1.606454 17.167771 -29.313017 12.827777 52.872129 26.265438 27.401727 -4.953386 -16.382438 4.291986 0.493015 2.505367 6.034426 -11.089341 6.034659 -24.227094 6.703887 -0.000003 -0.000000 -0.000000 -10.064540 -4.389310 8.246483 7.932569 1.921700 17.917989 -0.000001 -0.000001 0.000000 -9.920135 -5.509522 15.826988 -0.455256 1.560400 32.204547 0.000001 -0.000001 -0.000001 -6.655703 -2.236992 24.157624 -10.331532 -0.706790 34.541271 0.000003 -0.000001 -0.000001 -4.033496 1.931425 26.045347 -16.691642 -2.114087 29.910057 0.000001 0.000002 0.000001 0.000004 -0.000003 0.000004 0.000002 0.000002 0.000001 0.000004 -0.000003 0.000002 -0.000001 0.000000 -0.000001 -0.000001 0.000001 -0.000001 -0.000001 0.000000 -0.000001 -0.000001 0.000001 -0.000001 -0.000001 -0.000000 0.000000 -0.000001 -0.000000 0.000000 -0.000001 -0.000000 0.000000 -0.000001 -0.000000 0.000000 -0.000001 -0.000000 0.000000 -0.000001 -0.000000 0.000000 -0.000001 -0.000000 0.000000 0.000000 -0.000000 -0.000000 -0.000000 -0.000000 -0.000000 
1.067869 91.351173 10.397144 3.973259 -1.586558 1.687792 -0.000000 -0.000000 0.000000 -49.416040 -1.959596 9.783767 46.898760 -7.877057 -2.232044 13.078594 0.777755 -12.405264 0.000002 -0.000000 0.000000 0.000000 -0.000001 0.000001 -10.445267 -4.257618 -8.864017 32.755760 10.213948 6.945843 -31.346689 -2.586820 -2.112987 0.000000 -0.000001 0.000000 0.000001 -0.000000 -0.000001 11.600885 2.417648 -0.826763 5.866829 4.358825 -1.709115 -4.109044 4.521117 -0.878906 -0.359051 -1.339072 0.856384 -0.359037 -1.339069 0.856386 -0.000001 0.000000 0.000000 -0.358966 -1.339064 0.856387 -0.359039 -1.339074 0.856387 0.000000 -0.000000 -0.000000 -0.000001 0.000000 0.000000 -0.024284 -6.005865 -11.456707 7.010431 -0.984814 -60.855408 42.785449 -16.505347 2.151139 -12.892024 -6.129771 11.832198 11.589012 -6.756237 15.226838 14.892772 22.066767 -14.818365 0.000002 -0.000005 -0.000005 -3.032045 2.478109 -21.587853 10.685363 -5.808577 -43.047008 0.000001 -0.000003 0.000006 -4.429518 5.216776 -33.278328 -1.132557 -2.319052 -52.837107 -0.000000 0.000001 -0.000001 -0.874856 -4.959354 -31.410114 -13.460872 3.303350 -53.883810 -0.000001 0.000001 -0.000002 -0.263047 -13.500843 -32.944714 -20.382130 5.192153 -42.292159 0.000001 -0.000002 0.000001 0.000002 -0.000001 0.000001 0.000002 -0.000001 0.000001 0.000001 -0.000001 0.000001 0.000000 0.000001 -0.000002 0.000000 0.000000 -0.000002 0.000000 0.000001 -0.000002 0.000000 0.000001 -0.000001 6.788175 2.011003 17.695384 -29.461024 12.700791 53.878800 26.877822 28.579849 -6.086970 -15.889059 4.520381 0.356011 3.065331 6.092172 -11.350740 6.619226 -24.137217 7.213677 0.000000 -0.000005 -0.000001 -9.616374 -4.364436 9.079719 8.168861 2.074463 19.482302 0.000001 -0.000000 0.000000 -9.594540 -5.598082 16.900115 -0.486888 1.615013 33.484022 0.000004 0.000002 0.000001 -6.247895 -1.838101 24.644115 -10.574320 -0.806305 35.742817 0.000002 0.000002 -0.000001 -3.717262 2.617611 26.526286 -16.958316 -2.257651 30.682067 -0.000001 0.000003 0.000001 0.000002 -0.000001 0.000001 0.000002 -0.000001 0.000002 0.000002 -0.000001 -0.000001 0.000001 0.000000 -0.000002 0.000001 0.000001 -0.000000 0.000001 0.000000 -0.000002 0.000001 0.000001 -0.000001 -0.000001 0.000000 0.000000 -0.000001 0.000000 0.000000 -0.000001 0.000000 0.000000 -0.000001 0.000000 0.000000 -0.000001 0.000000 0.000000 -0.000001 0.000000 0.000000 -0.000001 0.000000 0.000000 -0.000001 0.000000 -0.000000 -0.000000 -0.000000 0.000000 
1.337065 91.462799 13.423258 3.576449 -2.272970 1.258737 -0.000000 0.000000 0.000000 -46.524206 -2.123327 9.655141 34.164958 -6.485695 -1.649841 13.190256 0.859083 -11.186002 0.000000 -0.000000 0.000000 -0.000000 0.000000 -0.000000 -7.694617 -4.964934 -9.085852 31.264679 11.056787 7.058708 -30.011260 -2.473604 -1.725043 -0.000000 0.000000 -0.000000 -0.000001 -0.000000 -0.000002 11.394928 2.816726 -1.013920 5.559134 5.006034 -1.924434 -4.425180 5.172754 -0.939170 -0.045338 -1.399306 0.942574 -0.045331 -1.399308 0.942571 0.000000 -0.000000 -0.000000 -0.045330 -1.399321 0.942577 -0.045336 -1.399299 0.942572 0.000000 0.000000 -0.000000 0.000000 -0.000000 -0.000000 0.058216 -4.674639 -10.110384 10.558614 -0.390214 -62.782423 43.429177 -16.722917 1.784895 -14.198680 -4.588251 13.535942 11.021794 -6.724430 14.974546 14.361134 22.249160 -14.329083 -0.000004 -0.000002 -0.000003 -3.432004 2.682322 -20.770491 10.554790 -5.477592 -41.495506 -0.000001 -0.000001 0.000003 -4.746329 5.315313 -32.195244 -1.081206 -2.278829 -51.555784 -0.000000 0.000001 0.000002 -1.180111 -4.471492 -30.995911 -13.292258 3.075384 -52.688906 0.000000 -0.000001 0.000001 -0.415132 -12.756717 -32.569156 -20.171968 4.950399 -41.531068 0.000001 -0.000003 0.000001 0.000001 -0.000000 0.000000 0.000001 -0.000000 0.000000 -0.000000 0.000000 0.000000 -0.000001 -0.000003 -0.000001 -0.000001 -0.000003 -0.000001 -0.000001 -0.000003 -0.000001 -0.000001 -0.000002 -0.000000 6.756551 2.099690 17.380728 -29.555540 12.418890 55.714109 27.633154 28.864318 -6.847910 -15.669772 5.154766 0.344408 3.908340 6.175640 -11.742768 7.490635 -23.990592 7.979322 0.000000 -0.000002 -0.000001 -8.943224 -4.311821 10.331663 8.512716 2.328962 21.833115 -0.000002 -0.000002 -0.000004 -9.097666 -5.706389 18.517502 -0.542423 1.695644 35.408291 -0.000001 0.000001 0.000000 -5.646861 -1.225364 25.366431 -10.929909 -0.973130 37.549337 -0.000000 0.000001 -0.000001 -3.262972 3.659180 27.234684 -17.351351 -2.486370 31.842082 0.000003 0.000002 -0.000001 0.000003 -0.000001 -0.000000 -0.000001 -0.000001 0.000001 0.000003 -0.000001 -0.000000 0.000001 0.000001 0.000001 0.000001 0.000002 0.000001 0.000001 0.000001 0.000001 0.000001 0.000002 0.000001 -0.000001 -0.000000 -0.000000 -0.000001 -0.000000 -0.000000 -0.000001 -0.000000 -0.000000 -0.000001 -0.000000 -0.000000 -0.000001 -0.000000 -0.000000 -0.000001 -0.000000 -0.000000 -0.000001 -0.000000 -0.000000 0.000001 -0.000000 -0.000000 -0.000000 0.000000 0.000000 
